<svg width="100px" height="100px" viewBox="0 0 100 100" xmlns="http://www.w3.org/2000/svg">
    <path
        d="M50,0 C77.6142375,0 100,22.3857625 100,50 C100,77.6142375 77.6142375,100 50,100 C22.3857625,100 0,77.6142375 0,50 C0,22.3857625 22.3857625,0 50,0 Z M50.9105962,43.5959028 C44.9463915,41.9141163 38.8835319,44.7026044 37.3924807,49.8615641 C36.4661345,53.18153 33.8567598,55.7800637 30.5128758,56.7185589 C27.300485,57.477932 24.8172708,59.9896405 24.1155997,63.1794797 C23.3865213,65.7020205 22.7670719,68.8810274 24.5212498,71.0672109 C26.3740826,73.3890067 29.5974195,73.2425343 33.3249773,73.0852158 C36.3070796,72.8085612 39.3166875,73.0038484 42.2384461,73.6711052 C45.0724959,74.6312927 47.7367412,76.0362996 50.1213004,77.8319643 C52.0729285,79.519028 54.4684338,80.6148417 57.0284108,81 C57.5875866,81 58.1467343,80.9077864 58.6729876,80.7179154 C61.3206735,79.7685462 62.4938256,76.7523018 63.222904,74.229761 C64.3300568,71.1594245 63.5625689,67.7255804 61.2438265,65.4037152 C58.8921055,62.8432613 58.0643581,59.2573481 59.0675233,55.9427984 C60.5421553,50.8217517 56.874801,45.2775503 50.9105962,43.5959028 Z M79.525826,47.7078915 C76.7959043,44.3716077 71.1880082,44.3932723 66.9998734,47.745874 C62.8117387,51.0930596 61.6386849,56.5342151 64.3686067,59.8650133 C65.782895,61.5195939 67.8824354,62.4418129 70.0696847,62.3767218 L70.4095602,62.3767218 C72.7941194,62.2411789 75.0690775,61.3514014 76.9000182,59.8379325 L77.138298,59.6421564 C81.1316325,56.2767646 82.2032493,50.9799479 79.525826,47.7078915 Z M34.5030831,38.5724164 C32.6940346,33.5544155 27.903024,30.6520493 23.8190173,32.0951082 C19.7350808,33.5381671 17.8876508,38.7893404 19.6912263,43.7965089 C20.4641873,46.031549 21.9497654,47.9682559 23.9176723,49.3081856 C25.1785753,50.1544672 26.6586804,50.6210067 28.1880429,50.6426991 C28.9336386,50.6426991 29.673607,50.5179192 30.3807652,50.2738032 C32.5240898,49.4493112 34.1522476,47.6698812 34.7662098,45.4782815 C35.4295136,43.2051617 35.3363176,40.7858056 34.5030831,38.5669863 Z M69.0062179,27.245286 C65.5088082,24.7227452 60.0763299,26.1656652 56.9078637,30.462206 C55.4716832,32.3554587 54.6877902,34.6502432 54.6713431,37.0154376 C54.6328915,39.2938347 55.6799252,41.4583536 57.5053928,42.847112 C58.6839197,43.6825335 60.1038214,44.1219506 61.550948,44.1056743 C62.3787796,44.1056743 63.1955248,43.9754921 63.9849048,43.7367923 C66.259863,42.9990838 68.233271,41.5614411 69.6146931,39.6302336 C72.8325709,35.2577278 72.5694443,29.8167111 69.0062179,27.245286 Z M49.5507014,22.5961533 C48.1090479,20.8004748 45.8614549,19.829441 43.5481855,20.0247282 C41.2403891,20.2147104 39.1792582,21.5329199 38.0664499,23.5455086 L38.071,23.537 L38.082869,23.5347179 C35.6761744,27.6137051 36.0419624,32.7247303 38.9752566,36.423641 L39.1792301,36.6736225 C40.5386478,38.2739444 42.5285872,39.2232997 44.6445466,39.2775446 C44.8254515,39.2721145 45.0008693,39.2666984 45.1762871,39.2504221 C47.4676644,39.0062784 49.5013599,37.6989012 50.6580227,35.7296418 C53.1139278,31.5579503 52.6699103,26.3121931 49.5507014,22.5961533 Z">
    </path>
</svg>