<svg class="icon" width="100px" height="100px" viewBox="0 0 100 100" xmlns="http://www.w3.org/2000/svg">
    <path
        d="M50,0 C77.617,0 100,22.383 100,50 C100,77.617 77.617,100 50,100 C22.383,100 0,77.617 0,50 C0,22.383 22.383,0 50,0 Z M37.2752,68.9786 C31.674,64.9016 24.6086,63.2368 17.7388,64.3254 C16.7274,64.5002 16.0156,65.4166 16.0964,66.4398 C16.7344,73.0038 20.2162,79.044 25.7248,83.0214 C31.326,87.0984 38.3914,88.7632 45.2612,87.6746 C46.2726,87.4998 46.9844,86.5834 46.9036,85.5602 C46.2656,78.9962 42.7838,72.956 37.2752,68.9786 Z M83.899,66.4394 C83.98,65.4182 83.27,64.5034 82.2606,64.3284 C75.3914,63.2368 68.326,64.9016 62.7248,68.9786 C57.2162,72.956 53.7344,78.9962 53.101,85.5606 C53.02,86.5818 53.73,87.4966 54.7394,87.6716 C61.6086,88.7632 68.674,87.0984 74.2752,83.0214 C79.7838,79.044 83.2656,73.0038 83.899,66.4394 Z M37.2752,43.9786 C31.674,39.9016 24.6086,38.2368 17.7388,39.3254 C16.7274,39.5002 16.0156,40.4166 16.0964,41.4398 C16.7344,48.0038 20.2162,54.044 25.7248,58.0214 C31.326,62.0984 38.3914,63.7632 45.2612,62.6746 C46.2726,62.4998 46.9844,61.5834 46.9036,60.5602 C46.2656,53.9962 42.7838,47.956 37.2752,43.9786 Z M83.899,41.4394 C83.98,40.4182 83.27,39.5034 82.2606,39.3284 C75.3914,38.2368 68.326,39.9016 62.7248,43.9786 C57.2162,47.956 53.7344,53.9962 53.101,60.5606 C53.02,61.5818 53.73,62.4966 54.7394,62.6716 C61.6086,63.7632 68.674,62.0984 74.2752,58.0214 C79.7838,54.044 83.2656,48.0038 83.899,41.4394 Z M51.168,11.0346 C50.4216,10.4132 49.3352,10.423 48.6,11.0578 C43.4464,15.6456 40.467,22.2428 40.4616,29.2 C40.5114,36.1862 43.5516,42.7862 48.7582,47.3502 C49.4988,47.9804 50.587,47.9818 51.329,47.3532 C56.5524,42.7884 59.5716,36.156 59.5382,29.1586 C59.5104,22.1596 56.4346,15.552 51.168,11.0346 Z">
    </path>
</svg>