<svg width="100px" height="100px" viewBox="0 0 100 100" xmlns="http://www.w3.org/2000/svg">
    <path
        d="M50,0 C22.383,0 0,22.383 0,50 C0,77.617 22.383,100 50,100 C77.617,100 100,77.617 100,50 C100,22.383 77.617,0 50,0 Z M43.2617,77.191 C38.7578,81.6988 31.1287,81.3707 22.8667,73.1129 C14.6089,64.8551 16.0698,49.9999 16.0698,49.9999 C16.0698,49.9999 30.9248,48.539 39.1868,56.8007 C47.4407,65.0585 47.7688,72.6877 43.261,77.1917 L43.2617,77.191 Z M38.4609,36.539 C38.4609,24.859 49.9999,15.383 49.9999,15.383 C49.9999,15.383 61.5389,24.8557 61.5389,36.535 C61.5389,48.219 56.3709,53.847 49.9999,53.847 C43.6289,53.847 38.4609,48.2181 38.4609,36.538 L38.4609,36.539 Z M77.1329,73.117 C68.8712,81.3748 61.2419,81.7029 56.7379,77.1951 C52.2301,72.6912 52.5582,65.0621 60.816,56.8001 C69.0777,48.5384 83.929,49.9993 83.929,49.9993 C83.929,49.9993 85.3899,64.8543 77.1321,73.1163 L77.1329,73.117 Z">
    </path>
</svg>