<svg class="icon" width="100px" height="98px" viewBox="0 0 100 98" xmlns="http://www.w3.org/2000/svg">
    <path
        d="M34.3578,93.9911889 C34.4684,94.6914323 34.1956,95.3972537 33.6424,95.8430986 C33.0892,96.2889434 32.3394,96.4070784 31.675,96.1532775 C13.1338,88.8641722 0,70.8496891 0,49.803939 C0,44.7050117 0.771,39.7837849 2.203,35.1500264 C2.4126,34.4936105 2.9486,33.9921844 3.6194,33.8250424 C4.2902,33.6579004 5.0002,33.8489483 5.4952,34.3298551 C15.6644,44.6763246 29.7388,64.9013058 34.3578,93.9911889 Z M9.636,23.5096506 C8.8622,22.8420786 8.7206,21.6995762 9.3082,20.864663 C18.3848,8.23737229 33.2342,0 50,0 C77.5958,0 100,22.3165474 100,49.803939 C100,72.8553933 84.2438,92.2699648 62.883,97.9362585 C61.8334,98.2065943 60.7592,97.5928106 60.4634,96.5539004 C57.2546,85.3753067 52.6826,68.4025227 59.5318,55.6638704 C59.5318,55.6638704 72.2228,56.780674 76.7038,48.2283416 C80.9462,40.1306195 80.1666,31.6978166 84.8268,23.5644349 C84.9996,23.2682011 85.0058,22.9038355 84.8434,22.6018244 C84.681,22.2998133 84.373,22.1031873 84.0298,22.0820705 C51.843,20.0042501 47.7978,38.5675727 47.4312,45.7744019 C47.4216,46.1977354 47.6838,46.5800304 48.0832,46.7250595 C48.4826,46.8700885 48.9304,46.7453795 49.1964,46.415279 C51.9406,43.3951681 56.5232,39.5875574 60.5168,37.69441 C60.9462,37.5800602 61.398,37.774694 61.6088,38.16436 C61.8194,38.554026 61.7338,39.036925 61.4018,39.3311667 C56.0264,44.0816656 48.1264,52.0616511 44.422,65.6240606 C44.2056,66.4045879 43.529,66.9717552 42.72,67.0512422 C41.911,67.1305301 41.1364,66.7056029 40.7714,65.9820513 C35.9162,56.6926206 24.4312,36.523619 9.636,23.5096506 Z">
    </path>
</svg>