<svg width="100" height="100" viewBox="0 0 100 100" xmlns="http://www.w3.org/2000/svg">
    <path
        d="M87.8554,22.5396 C88.2456,21.8632 88.9558,21.4346 89.7362,21.4046 C90.5164,21.3746 91.2576,21.7472 91.6986,22.3916 C96.9396,30.3108 100,39.8008 100,50 C100,77.5958 77.5958,100 50,100 C22.4042,100 0,77.5958 0,50 C0,22.4042 22.4042,0 50,0 C61.2866,0 71.7048,3.7478 80.0768,10.0656 C80.977,10.7584 81.2252,12.0106 80.6572,12.9944 C79.0048,15.8694 75.8274,21.3728 75.8274,21.3728 C75.8274,21.3728 68.313,21.3728 65.1428,21.3728 C64.2862,21.3728 63.4946,20.9158 63.0662,20.1738 C62.1236,18.5412 60.5524,15.8198 60.5524,15.8198 C59.0346,13.1908 55.668,12.2888 53.0392,13.8066 C50.4104,15.3244 49.5082,18.6908 51.026,21.3198 C51.026,21.3198 52.5974,24.0412 53.54,25.6738 C53.9682,26.4158 53.9682,27.3298 53.54,28.0718 C52.8704,29.2312 51.8618,30.9784 51.1924,32.1378 C50.764,32.8798 49.9724,33.3368 49.1156,33.3368 C45.3594,33.3368 35.2558,33.3368 35.2558,33.3368 C33.2908,33.3368 31.475,34.3852 30.4926,36.0868 L21.2826,52.039 C20.3002,53.7406 20.3002,55.8372 21.2826,57.539 C21.2826,57.539 26.3344,66.289 28.2126,69.542 C28.641,70.284 28.641,71.198 28.2126,71.94 C27.0284,73.9912 24.7396,77.9552 24.7396,77.9552 C23.222,80.584 24.124,83.9506 26.7528,85.4684 C29.3816,86.9862 32.7482,86.084 34.266,83.4552 C34.266,83.4552 36.5546,79.4912 37.739,77.44 C38.1672,76.698 38.9588,76.241 39.8156,76.241 C43.572,76.241 53.6756,76.241 53.6756,76.241 C55.6406,76.241 57.4562,75.1926 58.4386,73.491 C58.4386,73.491 63.6032,64.5458 65.4318,61.3784 C65.8232,60.7006 66.5464,60.2832 67.329,60.2832 C70.9852,60.2832 81.3086,60.2832 81.3086,60.2832 C84.3442,60.2832 86.8086,57.8186 86.8086,54.7832 C86.8086,51.7476 84.3442,49.2832 81.3086,49.2832 L67.3224,49.2832 C66.5396,49.2832 65.8166,48.8656 65.4252,48.1878 C64.2864,46.2154 61.8996,42.0814 60.7186,40.0358 C60.2902,39.294 60.2902,38.3798 60.7186,37.6378 C61.388,36.4784 62.3968,34.7312 63.0662,33.5718 C63.4946,32.8298 64.2862,32.3728 65.1428,32.3728 C68.8992,32.3728 79.0028,32.3728 79.0028,32.3728 C80.9678,32.3728 82.7834,31.3246 83.766,29.6228 C83.766,29.6228 86.134,25.5214 87.8554,22.5396 Z M49.1156,44.3368 C49.9724,44.3368 50.764,44.794 51.1924,45.5358 C52.3536,47.5474 54.681,51.5784 55.8424,53.59 C56.2708,54.3318 56.2708,55.246 55.8424,55.9878 C54.681,57.9994 52.3536,62.0304 51.1924,64.042 C50.764,64.784 49.9724,65.241 49.1156,65.241 C46.793,65.241 42.1382,65.241 39.8156,65.241 C38.9588,65.241 38.1672,64.784 37.7388,64.042 C36.5776,62.0304 34.2502,57.9994 33.0888,55.9878 C32.6606,55.246 32.6606,54.3318 33.0888,53.59 C34.2502,51.5784 36.5776,47.5474 37.7388,45.5358 C38.1672,44.794 38.9588,44.3368 39.8156,44.3368 C42.1382,44.3368 46.793,44.3368 49.1156,44.3368 Z" />
</svg>